<svg width="56" height="70" viewBox="0 0 56 70" fill="none" xmlns="http://www.w3.org/2000/svg">
<path d="M24.15 46.725L44.1 26.775L40.425 23.1875L24.4125 39.2L15.575 30.3625L11.725 34.2125L24.15 46.725ZM28 70C19.8333 67.9583 13.125 63.2188 7.875 55.7812C2.625 48.3438 0 40.1917 0 31.325V10.5L28 0L56 10.5V31.325C56 40.1917 53.375 48.3438 48.125 55.7812C42.875 63.2188 36.1667 67.9583 28 70ZM28 64.575C34.7083 62.3583 40.1771 58.1729 44.4062 52.0187C48.6354 45.8646 50.75 38.9667 50.75 31.325V14.175L28 5.6L5.25 14.175V31.325C5.25 38.9667 7.36458 45.8646 11.5938 52.0187C15.8229 58.1729 21.2917 62.3583 28 64.575Z" fill="#5E67A9"/>
</svg>
