<svg width="70" height="70" viewBox="0 0 70 70" fill="none" xmlns="http://www.w3.org/2000/svg">
<path d="M35 54.1625C38.85 54.1625 42.3938 53.1271 45.6313 51.0562C48.8688 48.9854 51.2167 46.1708 52.675 42.6125H17.325C18.8417 46.1708 21.2042 48.9854 24.4125 51.0562C27.6208 53.1271 31.15 54.1625 35 54.1625ZM19.425 30.3625L23.3625 26.425L27.3 30.3625L30.45 27.2125L23.3625 20.125L16.275 27.2125L19.425 30.3625ZM42.7875 30.3625L46.725 26.425L50.6625 30.3625L53.8125 27.2125L46.725 20.125L39.6375 27.2125L42.7875 30.3625ZM35 70C30.1583 70 25.6083 69.0812 21.35 67.2437C17.0917 65.4062 13.3875 62.9125 10.2375 59.7625C7.0875 56.6125 4.59375 52.9083 2.75625 48.65C0.91875 44.3917 0 39.8417 0 35C0 30.1583 0.91875 25.6083 2.75625 21.35C4.59375 17.0917 7.0875 13.3875 10.2375 10.2375C13.3875 7.0875 17.0917 4.59375 21.35 2.75625C25.6083 0.91875 30.1583 0 35 0C39.8417 0 44.3917 0.91875 48.65 2.75625C52.9083 4.59375 56.6125 7.0875 59.7625 10.2375C62.9125 13.3875 65.4062 17.0917 67.2437 21.35C69.0812 25.6083 70 30.1583 70 35C70 39.8417 69.0812 44.3917 67.2437 48.65C65.4062 52.9083 62.9125 56.6125 59.7625 59.7625C56.6125 62.9125 52.9083 65.4062 48.65 67.2437C44.3917 69.0812 39.8417 70 35 70ZM35 64.75C43.2833 64.75 50.3125 61.8625 56.0875 56.0875C61.8625 50.3125 64.75 43.2833 64.75 35C64.75 26.7167 61.8625 19.6875 56.0875 13.9125C50.3125 8.1375 43.2833 5.25 35 5.25C26.7167 5.25 19.6875 8.1375 13.9125 13.9125C8.1375 19.6875 5.25 26.7167 5.25 35C5.25 43.2833 8.1375 50.3125 13.9125 56.0875C19.6875 61.8625 26.7167 64.75 35 64.75Z" fill="#5E67A9"/>
</svg>
