<svg width="70" height="56" viewBox="0 0 70 56" fill="none" xmlns="http://www.w3.org/2000/svg">
<path d="M28.7834 41.5399C30.1331 42.8837 32.0842 43.5117 34.6369 43.4241C37.1896 43.3365 39.0527 42.3871 40.2263 40.5759L59.2392 10.867L29.7516 30.0595C27.9912 31.228 27.0523 33.0975 26.9349 35.6682C26.8176 38.2389 27.4337 40.1961 28.7834 41.5399ZM35.033 0C38.3779 0 41.8694 0.540428 45.5077 1.62128C49.146 2.70214 52.6375 4.55712 55.9824 7.18623L51.4052 10.4288C48.7645 8.67606 45.9331 7.37611 42.911 6.52895C39.8889 5.68179 37.2629 5.25822 35.033 5.25822C26.8176 5.25822 19.8051 8.17945 13.9956 14.0219C8.1861 19.8644 5.28136 26.963 5.28136 35.3177C5.28136 37.9468 5.64812 40.6051 6.38164 43.2926C7.11516 45.9802 8.15676 48.4632 9.50644 50.7418H60.4715C61.7625 48.6385 62.7895 46.1847 63.5523 43.3803C64.3152 40.5759 64.6966 37.8299 64.6966 35.1424C64.6966 32.6886 64.3299 30.0449 63.5964 27.2113C62.8628 24.3777 61.5572 21.7632 59.6793 19.3678L63.1122 14.8106C65.3421 18.0824 67.0146 21.3688 68.1295 24.6698C69.2445 27.9708 69.8606 31.2864 69.978 34.6166C70.0954 38.1221 69.7433 41.4231 68.9217 44.5196C68.1002 47.6161 66.8972 50.4789 65.3128 53.108C64.6086 54.4517 63.8604 55.2697 63.0682 55.5618C62.276 55.8539 61.2931 56 60.1195 56H9.85854C8.86095 56 7.87803 55.7517 6.90978 55.2551C5.94153 54.7585 5.22268 54.0428 4.75322 53.108C3.2275 50.3036 2.05386 47.4554 1.23232 44.5634C0.410772 41.6714 0 38.5895 0 35.3177C0 30.4684 0.924237 25.8967 2.77271 21.6025C4.62119 17.3083 7.12983 13.5691 10.2986 10.385C13.4675 7.20083 17.1791 4.67397 21.4335 2.80438C25.6879 0.934793 30.2211 0 35.033 0Z" fill="#5E67A9"/>
</svg>
