<svg width="148" height="26" viewBox="0 0 148 26" fill="none" xmlns="http://www.w3.org/2000/svg">
<path d="M13.4681 8.04651C13.3482 6.94574 12.8535 6.09302 11.9841 5.48837C11.1147 4.87597 10.0205 4.56977 8.70142 4.56977C7.75708 4.56977 6.94015 4.72481 6.25063 5.03488C5.56111 5.33721 5.02524 5.75581 4.64301 6.2907C4.26827 6.81783 4.0809 7.4186 4.0809 8.09302C4.0809 8.65891 4.20831 9.14729 4.46313 9.55814C4.72545 9.96899 5.06646 10.314 5.48617 10.593C5.91337 10.8643 6.37055 11.093 6.85771 11.2791C7.34487 11.4574 7.81329 11.6047 8.26298 11.7209L10.5114 12.3256C11.2459 12.5116 11.9991 12.7636 12.7711 13.0814C13.543 13.3992 14.2588 13.8178 14.9183 14.3372C15.5779 14.8566 16.11 15.5 16.5147 16.2674C16.9269 17.0349 17.133 17.9535 17.133 19.0233C17.133 20.3721 16.7958 21.5698 16.1212 22.6163C15.4542 23.6628 14.4836 24.4884 13.2095 25.093C11.9429 25.6977 10.4102 26 8.61148 26C6.88769 26 5.39623 25.7171 4.13711 25.1512C2.87799 24.5853 1.89243 23.7829 1.18042 22.7442C0.468422 21.6977 0.0749476 20.4574 0 19.0233H3.48506C3.55252 19.8837 3.82233 20.6008 4.2945 21.1744C4.77416 21.7403 5.38499 22.1628 6.12697 22.4419C6.87644 22.7132 7.69712 22.8488 8.589 22.8488C9.57081 22.8488 10.444 22.6899 11.2084 22.3721C11.9804 22.0465 12.5875 21.5969 13.0296 21.0233C13.4718 20.4419 13.6929 19.7636 13.6929 18.9884C13.6929 18.2829 13.4981 17.7054 13.1083 17.2558C12.7261 16.8062 12.2052 16.4341 11.5457 16.1395C10.8936 15.845 10.1554 15.5853 9.33098 15.3605L6.61038 14.593C4.76667 14.0736 3.30519 13.3101 2.22594 12.3023C1.15419 11.2946 0.618318 9.96124 0.618318 8.30233C0.618318 6.93023 0.978066 5.73256 1.69756 4.7093C2.41706 3.68605 3.39138 2.89147 4.62052 2.32558C5.84966 1.75194 7.23619 1.46512 8.78011 1.46512C10.339 1.46512 11.7143 1.74806 12.906 2.31395C14.1051 2.87985 15.0495 3.65892 15.739 4.65116C16.4285 5.63566 16.7883 6.76744 16.8182 8.04651H13.4681Z" fill="black"/>
<path d="M28.288 25.9651C26.6692 25.9651 25.2564 25.5814 24.0498 24.814C22.8431 24.0465 21.9063 22.9729 21.2392 21.593C20.5722 20.2132 20.2387 18.6008 20.2387 16.7558C20.2387 14.9031 20.5722 13.2829 21.2392 11.8953C21.9063 10.5078 22.8431 9.43023 24.0498 8.66279C25.2564 7.89535 26.6692 7.51163 28.288 7.51163C29.9069 7.51163 31.3197 7.89535 32.5263 8.66279C33.733 9.43023 34.6698 10.5078 35.3369 11.8953C36.0039 13.2829 36.3374 14.9031 36.3374 16.7558C36.3374 18.6008 36.0039 20.2132 35.3369 21.593C34.6698 22.9729 33.733 24.0465 32.5263 24.814C31.3197 25.5814 29.9069 25.9651 28.288 25.9651ZM28.2993 23.0465C29.3486 23.0465 30.2179 22.7597 30.9075 22.186C31.597 21.6124 32.1066 20.8488 32.4364 19.8953C32.7737 18.9419 32.9423 17.8915 32.9423 16.7442C32.9423 15.6047 32.7737 14.5581 32.4364 13.6047C32.1066 12.6434 31.597 11.8721 30.9075 11.2907C30.2179 10.7093 29.3486 10.4186 28.2993 10.4186C27.2425 10.4186 26.3656 10.7093 25.6686 11.2907C24.9791 11.8721 24.4657 12.6434 24.1284 13.6047C23.7987 14.5581 23.6338 15.6047 23.6338 16.7442C23.6338 17.8915 23.7987 18.9419 24.1284 19.8953C24.4657 20.8488 24.9791 21.6124 25.6686 22.186C26.3656 22.7597 27.2425 23.0465 28.2993 23.0465ZM26.9053 5.36047L29.5359 0H33.0772L29.5921 5.36047H26.9053Z" fill="black"/>
<path d="M67.8604 9.53488H64.3528C64.2179 8.75969 63.9669 8.07752 63.5996 7.48837C63.2324 6.89923 62.7827 6.39922 62.2506 5.98837C61.7184 5.57752 61.1226 5.26744 60.4631 5.05814C59.811 4.84884 59.1177 4.74419 58.3833 4.74419C57.0567 4.74419 55.8688 5.08915 54.8195 5.77907C53.7777 6.46899 52.9533 7.48062 52.3462 8.81395C51.7466 10.1473 51.4469 11.7752 51.4469 13.6977C51.4469 15.6357 51.7466 17.2713 52.3462 18.6047C52.9533 19.938 53.7815 20.9457 54.8307 21.6279C55.88 22.3101 57.0604 22.6512 58.372 22.6512C59.099 22.6512 59.7885 22.5504 60.4406 22.3488C61.1001 22.1395 61.6959 21.8333 62.2281 21.4302C62.7602 21.0271 63.2099 20.5349 63.5771 19.9535C63.9519 19.3643 64.2104 18.6899 64.3528 17.9302L67.8604 17.9419C67.673 19.1124 67.3095 20.1899 66.7699 21.1744C66.2378 22.1512 65.552 22.9961 64.7126 23.7093C63.8807 24.4147 62.9288 24.9612 61.8571 25.3488C60.7853 25.7364 59.6161 25.9302 58.3495 25.9302C56.3559 25.9302 54.5797 25.4419 53.0208 24.4651C51.4618 23.4806 50.2327 22.0736 49.3333 20.2442C48.4415 18.4147 47.9955 16.2326 47.9955 13.6977C47.9955 11.155 48.4452 8.97287 49.3446 7.15116C50.2439 5.32171 51.4731 3.9186 53.032 2.94186C54.5909 1.95736 56.3634 1.46512 58.3495 1.46512C59.5712 1.46512 60.7104 1.64729 61.7671 2.01163C62.8314 2.36822 63.787 2.89535 64.6339 3.59302C65.4808 4.28295 66.1816 5.12791 66.7362 6.12791C67.2908 7.12016 67.6655 8.25581 67.8604 9.53488Z" fill="black"/>
<path d="M76.7726 26C75.6784 26 74.6891 25.7907 73.8047 25.3721C72.9203 24.9457 72.2195 24.3295 71.7024 23.5233C71.1927 22.7171 70.9379 21.7287 70.9379 20.5581C70.9379 19.5504 71.1253 18.7209 71.5 18.0698C71.8748 17.4186 72.3807 16.9031 73.0177 16.5233C73.6548 16.1434 74.3668 15.8566 75.1537 15.6628C75.9407 15.469 76.7426 15.3217 77.5595 15.2209C78.5938 15.0969 79.4332 14.9961 80.0778 14.9186C80.7223 14.8333 81.1908 14.6977 81.4831 14.5116C81.7754 14.3256 81.9215 14.0233 81.9215 13.6047V13.5233C81.9215 12.5078 81.6442 11.7209 81.0896 11.1628C80.5425 10.6047 79.7255 10.3256 78.6388 10.3256C77.5071 10.3256 76.6152 10.5853 75.9632 11.1047C75.3186 11.6163 74.8727 12.186 74.6253 12.814L71.4663 12.0698C71.841 10.9845 72.3882 10.1085 73.1077 9.44186C73.8346 8.76744 74.6703 8.27907 75.6147 7.97674C76.559 7.66667 77.5521 7.51163 78.5938 7.51163C79.2833 7.51163 80.0141 7.5969 80.786 7.76744C81.5655 7.93023 82.2925 8.23256 82.967 8.67442C83.649 9.11628 84.2074 9.74806 84.6421 10.5698C85.0768 11.3837 85.2941 12.4419 85.2941 13.7442V25.6047H82.0114V23.1628H81.8765C81.6592 23.6124 81.3332 24.0543 80.8985 24.4884C80.4638 24.9225 79.9054 25.2829 79.2234 25.5698C78.5414 25.8566 77.7244 26 76.7726 26ZM77.5033 23.2093C78.4327 23.2093 79.2271 23.0194 79.8867 22.6395C80.5537 22.2597 81.0596 21.7636 81.4044 21.1512C81.7566 20.531 81.9327 19.8682 81.9327 19.1628V16.8605C81.8128 16.9845 81.5805 17.1008 81.2357 17.2093C80.8985 17.3101 80.5125 17.3992 80.0778 17.4767C79.6431 17.5465 79.2196 17.6124 78.8074 17.6744C78.3952 17.7287 78.0505 17.7752 77.7731 17.814C77.1211 17.8992 76.5253 18.0426 75.9856 18.2442C75.4535 18.4457 75.0263 18.7364 74.704 19.1163C74.3893 19.4884 74.2319 19.9845 74.2319 20.6047C74.2319 21.4651 74.5392 22.1163 75.1537 22.5581C75.7683 22.9923 76.5515 23.2093 77.5033 23.2093Z" fill="black"/>
<path d="M93.1327 1.7907V25.6047H89.7713V1.7907H93.1327Z" fill="black"/>
<path d="M101.016 15V25.6047H97.6549V1.7907H100.971V10.6512H101.185C101.59 9.68992 102.208 8.92636 103.04 8.36047C103.872 7.79457 104.959 7.51163 106.3 7.51163C107.484 7.51163 108.519 7.76357 109.403 8.26744C110.295 8.77132 110.984 9.52326 111.471 10.5233C111.966 11.5155 112.213 12.7558 112.213 14.2442V25.6047H108.852V14.6628C108.852 13.3527 108.526 12.3372 107.874 11.6163C107.222 10.8876 106.315 10.5233 105.153 10.5233C104.359 10.5233 103.647 10.6977 103.017 11.0465C102.395 11.3953 101.904 11.907 101.545 12.5814C101.192 13.2481 101.016 14.0543 101.016 15Z" fill="black"/>
<path d="M121.724 26C120.63 26 119.641 25.7907 118.756 25.3721C117.872 24.9457 117.171 24.3295 116.654 23.5233C116.144 22.7171 115.89 21.7287 115.89 20.5581C115.89 19.5504 116.077 18.7209 116.452 18.0698C116.826 17.4186 117.332 16.9031 117.969 16.5233C118.606 16.1434 119.318 15.8566 120.105 15.6628C120.892 15.469 121.694 15.3217 122.511 15.2209C123.546 15.0969 124.385 14.9961 125.029 14.9186C125.674 14.8333 126.142 14.6977 126.435 14.5116C126.727 14.3256 126.873 14.0233 126.873 13.6047V13.5233C126.873 12.5078 126.596 11.7209 126.041 11.1628C125.494 10.6047 124.677 10.3256 123.591 10.3256C122.459 10.3256 121.567 10.5853 120.915 11.1047C120.27 11.6163 119.824 12.186 119.577 12.814L116.418 12.0698C116.793 10.9845 117.34 10.1085 118.059 9.44186C118.786 8.76744 119.622 8.27907 120.566 7.97674C121.511 7.66667 122.504 7.51163 123.546 7.51163C124.235 7.51163 124.966 7.5969 125.738 7.76744C126.517 7.93023 127.244 8.23256 127.919 8.67442C128.601 9.11628 129.159 9.74806 129.594 10.5698C130.029 11.3837 130.246 12.4419 130.246 13.7442V25.6047H126.963V23.1628H126.828C126.611 23.6124 126.285 24.0543 125.85 24.4884C125.415 24.9225 124.857 25.2829 124.175 25.5698C123.493 25.8566 122.676 26 121.724 26ZM122.455 23.2093C123.384 23.2093 124.179 23.0194 124.838 22.6395C125.505 22.2597 126.011 21.7636 126.356 21.1512C126.708 20.531 126.884 19.8682 126.884 19.1628V16.8605C126.765 16.9845 126.532 17.1008 126.187 17.2093C125.85 17.3101 125.464 17.3992 125.029 17.4767C124.595 17.5465 124.171 17.6124 123.759 17.6744C123.347 17.7287 123.002 17.7752 122.725 17.814C122.073 17.8992 121.477 18.0426 120.937 18.2442C120.405 18.4457 119.978 18.7364 119.656 19.1163C119.341 19.4884 119.184 19.9845 119.184 20.6047C119.184 21.4651 119.491 22.1163 120.105 22.5581C120.72 22.9923 121.503 23.2093 122.455 23.2093Z" fill="black"/>
<path d="M147.663 12.1047L144.616 12.6628C144.489 12.2597 144.286 11.876 144.009 11.5116C143.739 11.1473 143.372 10.8488 142.907 10.6163C142.443 10.3837 141.862 10.2674 141.165 10.2674C140.213 10.2674 139.419 10.4884 138.781 10.9302C138.144 11.3643 137.826 11.9264 137.826 12.6163C137.826 13.2132 138.039 13.6938 138.467 14.0581C138.894 14.4225 139.583 14.7209 140.535 14.9535L143.278 15.6047C144.867 15.9845 146.051 16.5698 146.831 17.3605C147.61 18.1512 148 19.1783 148 20.4419C148 21.5116 147.7 22.4651 147.101 23.3023C146.509 24.1318 145.68 24.7829 144.616 25.2558C143.559 25.7287 142.334 25.9651 140.94 25.9651C139.006 25.9651 137.429 25.5388 136.207 24.686C134.985 23.8256 134.236 22.6047 133.959 21.0233L137.208 20.5116C137.41 21.3876 137.826 22.0504 138.455 22.5C139.085 22.9419 139.906 23.1628 140.917 23.1628C142.019 23.1628 142.9 22.9264 143.559 22.4535C144.219 21.9729 144.549 21.3876 144.549 20.6977C144.549 20.1395 144.346 19.6705 143.942 19.2907C143.544 18.9109 142.934 18.624 142.109 18.4302L139.186 17.7674C137.575 17.3876 136.383 16.7829 135.611 15.9535C134.847 15.124 134.464 14.0736 134.464 12.8023C134.464 11.7481 134.749 10.8256 135.319 10.0349C135.888 9.24419 136.675 8.62791 137.68 8.18605C138.684 7.73643 139.834 7.51163 141.131 7.51163C142.997 7.51163 144.466 7.93023 145.538 8.76744C146.61 9.5969 147.318 10.7093 147.663 12.1047Z" fill="black"/>
</svg>
